<svg xmlns="http://www.w3.org/2000/svg" xmlns:xlink="http://www.w3.org/1999/xlink" id="layer" x="0" y="0" version="1.1" viewBox="0 0 652 652" xml:space="preserve" style="enable-background:new 0 0 652 652"><style type="text/css">.st0{fill:#3fae2a}</style><g id="Page-1_1_"><g id="Desktop-HD"><g id="stockx-homepage-logo-black" transform="translate(70.000000, 4.000000)"><g id="Page-1"><g id="stockx-homepage-logo"><g id="XMLID_31_" transform="translate(98.000000, 0.000000)"><polygon id="XMLID_33_" points="302.3 336 220.5 452.6 307.6 419.7 332.3 381.6" class="st0"/><polygon id="XMLID_32_" points="366.3 330.7 366.3 330.3 350.6 308.3 370 324.7 420.5 247.7 439.2 250 440.3 182.3 346.5 238.4 369.6 241.4 336.4 288.5 298.2 234.6 220.5 199.5 306.5 330.7 306.5 330.7 336.4 376 336.4 376 365.1 419.7 452.3 452.6" class="st0"/></g><g id="XMLID_22_" transform="translate(0.000000, 16.000000)"><path id="XMLID_30_" d="M-9.8,305c-7.5-3-14.2-5.6-14.2-9.7c0-6.4,7.9-6.7,10.1-6.7c11.2,0,17.6,6,17.6,6.4l2.6,2.6l9-16.8 l-1.5-1.5c-0.4-0.4-9.3-9.7-27.7-9.7c-18.7,0-31.8,10.5-31.8,25.4c0,16.8,15,22.8,26.5,27.7c7.9,3,14.2,5.6,14.2,10.1 c0,4.5-5.2,7.1-10.5,7.1c-12.3,0-20.6-8.2-20.9-8.6l-2.6-2.6l-10.8,15.7l1.5,1.5c0.4,0.4,12,12.7,32.5,12.7 C3,358.5,16,347.6,16,332.3C17.2,315.8,2.2,309.9-9.8,305z"/><path id="XMLID_29_" d="M72.5,290.8v-20.2H49.3v-24.7L26.1,250v39.6V311v17.6c0,4.9,0.4,9.3,1.1,13.5c0.7,3.7,2.2,7.1,4.5,9.7 c2.2,2.6,5.2,4.9,9,6c3.7,1.1,8.6,1.9,14.2,1.9c2.6,0,5.2-0.4,8.6-0.7s6.4-1.1,8.6-2.2l0.7-0.4v-20.6l-1.5,1.1 c-1.1,0.7-3,1.5-4.9,1.9c-2.2,0.4-4.1,0.7-6,0.7c-4.5,0-7.1-1.1-8.6-3.4c-1.5-2.2-2.2-5.6-2.2-9.7V290h22.8V290.8z"/><path id="XMLID_24_" d="M238.1,331.2c-1.9,2.6-4.1,4.5-6.7,5.6c-2.6,1.1-5.6,1.9-8.6,1.9c-3.7,0-7.1-0.7-10.1-1.9 c-3-1.5-5.6-3-7.5-5.6c-2.2-2.2-3.7-4.9-4.9-7.9c-1.1-3-1.5-6-1.5-9.3c0-3,0.4-6.4,1.5-9.3c1.1-3,2.6-5.6,4.9-7.9 c2.2-2.2,4.5-4.1,7.5-5.6c3-1.5,6.4-1.9,10.1-1.9c2.6,0,5.2,0.7,7.9,2.2c2.6,1.5,5.2,3.4,7.5,6l0.7,0.7l16.1-16.1l-0.7-0.7 c-4.1-4.5-9.3-7.9-15-10.1c-12-4.5-24.3-3.7-35.1,0c-5.6,2.2-10.8,5.2-15,9.3s-7.5,9-10.1,14.2c-2.6,5.6-3.7,12-3.7,18.7 s1.1,13.1,3.7,18.7c2.6,5.6,6,10.5,10.1,14.2c4.1,4.1,9.3,7.1,15,9.3c5.6,2.2,12,3.4,18.3,3.4c1.9,0,4.1-0.4,6.7-0.7 c2.6-0.4,5.2-1.1,8.2-2.2c3-1.1,5.6-2.2,8.6-3.7c3-1.5,5.2-3.4,7.5-5.6l0.7-0.7l-15.7-16.8L238.1,331.2z"/><path id="XMLID_25_" d="M167.8,295.3c-2.6-5.6-6-10.5-10.1-14.2c-4.1-4.1-9.3-7.1-15-9.3c-5.6-2.2-12-3.4-18.3-3.4 c-6.4,0-12.7,1.1-18.3,3.4s-10.8,5.2-15,9.3c-4.1,4.1-7.5,9-10.1,14.2c-2.6,5.6-3.7,12-3.7,18.7s1.1,13.1,3.7,18.7 c2.6,5.6,6,10.5,10.1,14.2c4.1,4.1,9.3,7.1,15,9.3c5.6,2.2,12,3.4,18.3,3.4c6.4,0,12.7-1.1,18.3-3.4c5.6-2.2,10.8-5.2,15-9.3 c4.1-4.1,7.5-9,10.1-14.2c2.6-5.6,3.7-12,3.7-18.7S170.1,300.9,167.8,295.3z M148.4,314c0,3-0.4,6.4-1.5,9.3 c-1.1,3-2.6,5.6-4.9,7.9c-2.2,2.2-4.5,4.1-7.5,5.6c-3,1.5-6.4,1.9-10.1,1.9s-7.1-0.7-10.1-1.9c-3-1.5-5.6-3.4-7.5-5.6 c-2.2-2.2-3.7-4.9-4.9-7.9c-1.1-3-1.5-6-1.5-9.3c0-3,0.4-6.4,1.5-9.3c1.1-3,2.6-5.6,4.9-7.9c2.2-2.2,4.5-4.1,7.5-5.6 c3-1.5,6.4-1.9,10.1-1.9s7.1,0.7,10.1,1.9c3,1.5,5.6,3,7.5,5.6c2.2,2.2,3.7,4.9,4.9,7.9C147.6,308,148.4,311,148.4,314z"/><polygon id="XMLID_23_" points="308 310.2 345.4 270.6 315.5 270.6 284.1 304.3 284.1 225.7 260.9 229.9 260.9 357.7 284.1 357.7 284.1 315.8 316.6 357.7 347.6 357.7"/></g></g></g></g></g></g></svg>